<mxfile>
    <diagram id="8nsOS5Pobd4VxMb3ovLx" name="Page-1">
        <mxGraphModel dx="806" dy="629" grid="1" gridSize="10" guides="1" tooltips="1" connect="1" arrows="1" fold="1" page="1" pageScale="1" pageWidth="827" pageHeight="1169" math="0" shadow="0">
            <root>
                <mxCell id="0"/>
                <mxCell id="1" parent="0"/>
                <mxCell id="11" value="User" style="swimlane;fontStyle=1;align=center;verticalAlign=top;childLayout=stackLayout;horizontal=1;startSize=26;horizontalStack=0;resizeParent=1;resizeParentMax=0;resizeLast=0;collapsible=1;marginBottom=0;" parent="1" vertex="1">
                    <mxGeometry x="440" y="80" width="160" height="470" as="geometry"/>
                </mxCell>
                <mxCell id="12" value="+ ID user: INT&#10;+ userUsername: VARCHAR&#10;+ userEmail: VARCHAR&#10;+ userPassword: VARCHAR&#10;+ userGender:VARCHAR&#10;+ userClass:VARCHAR&#10;+ userParents:VARCHAR&#10;+ userAdresse:VARCHAR&#10;+ userBirth: INT&#10;+userJob: VARCHAR&#10;+userPhone VARCHAR&#10;+userRole: VARCHAR&#10;&#10;&#10;&#10;" style="text;strokeColor=none;fillColor=none;align=left;verticalAlign=top;spacingLeft=4;spacingRight=4;overflow=hidden;rotatable=0;points=[[0,0.5],[1,0.5]];portConstraint=eastwest;" parent="11" vertex="1">
                    <mxGeometry y="26" width="160" height="244" as="geometry"/>
                </mxCell>
                <mxCell id="13" value="" style="line;strokeWidth=1;fillColor=none;align=left;verticalAlign=middle;spacingTop=-1;spacingLeft=3;spacingRight=3;rotatable=0;labelPosition=right;points=[];portConstraint=eastwest;" parent="11" vertex="1">
                    <mxGeometry y="270" width="160" height="8" as="geometry"/>
                </mxCell>
                <mxCell id="14" value="+ addUsers();&#10;+ fetchUsers();&#10;+ updateUsers();&#10;+ removeUsers();&#10;+ fetchStats();&#10;&#10;+ operateStats();&#10;&#10;+ searchData();&#10;&#10;+ logout();&#10;" style="text;strokeColor=none;fillColor=none;align=left;verticalAlign=top;spacingLeft=4;spacingRight=4;overflow=hidden;rotatable=0;points=[[0,0.5],[1,0.5]];portConstraint=eastwest;" parent="11" vertex="1">
                    <mxGeometry y="278" width="160" height="192" as="geometry"/>
                </mxCell>
                <mxCell id="15" value="Admin" style="swimlane;fontStyle=1;align=center;verticalAlign=top;childLayout=stackLayout;horizontal=1;startSize=26;horizontalStack=0;resizeParent=1;resizeParentMax=0;resizeLast=0;collapsible=1;marginBottom=0;" parent="1" vertex="1">
                    <mxGeometry x="40" y="80" width="160" height="348" as="geometry"/>
                </mxCell>
                <mxCell id="16" value="+ ID admin INT&#10;+ adminUsername STR&#10;+ adminEmail STR&#10;+ adminPassword STR&#10;&#10;" style="text;strokeColor=none;fillColor=none;align=left;verticalAlign=top;spacingLeft=4;spacingRight=4;overflow=hidden;rotatable=0;points=[[0,0.5],[1,0.5]];portConstraint=eastwest;" parent="15" vertex="1">
                    <mxGeometry y="26" width="160" height="134" as="geometry"/>
                </mxCell>
                <mxCell id="17" value="" style="line;strokeWidth=1;fillColor=none;align=left;verticalAlign=middle;spacingTop=-1;spacingLeft=3;spacingRight=3;rotatable=0;labelPosition=right;points=[];portConstraint=eastwest;" parent="15" vertex="1">
                    <mxGeometry y="160" width="160" height="8" as="geometry"/>
                </mxCell>
                <mxCell id="18" value="+ addUsers();&#10;+ fetchUsers();&#10;+ updateUsers();&#10;+ removeUsers();&#10;+ fetchStats();&#10;&#10;+ operateStats();&#10;&#10;+ searchData();&#10;&#10;+ logout();&#10;" style="text;strokeColor=none;fillColor=none;align=left;verticalAlign=top;spacingLeft=4;spacingRight=4;overflow=hidden;rotatable=0;points=[[0,0.5],[1,0.5]];portConstraint=eastwest;" parent="15" vertex="1">
                    <mxGeometry y="168" width="160" height="180" as="geometry"/>
                </mxCell>
                <mxCell id="23" value="" style="endArrow=block;startArrow=none;endFill=1;startFill=0;endSize=8;html=1;labelBackgroundColor=none;exitX=0;exitY=0.519;exitDx=0;exitDy=0;entryX=0.998;entryY=0.924;entryDx=0;entryDy=0;entryPerimeter=0;exitPerimeter=0;" parent="1" target="16" edge="1">
                    <mxGeometry width="160" relative="1" as="geometry">
                        <mxPoint x="240" y="229.3699999999999" as="sourcePoint"/>
                        <mxPoint x="690" y="290" as="targetPoint"/>
                    </mxGeometry>
                </mxCell>
                <mxCell id="24" value="&amp;nbsp; *&amp;nbsp; &amp;nbsp;1" style="endArrow=diamondThin;startArrow=none;endFill=1;startFill=0;endSize=8;html=1;labelBackgroundColor=none;exitX=0;exitY=0.519;exitDx=0;exitDy=0;entryX=0.998;entryY=0.924;entryDx=0;entryDy=0;entryPerimeter=0;exitPerimeter=0;" parent="1" edge="1">
                    <mxGeometry x="0.0078" y="-6" width="160" relative="1" as="geometry">
                        <mxPoint x="440" y="246" as="sourcePoint"/>
                        <mxPoint x="399.68" y="246.44599999999997" as="targetPoint"/>
                        <Array as="points">
                            <mxPoint x="429.68" y="246"/>
                            <mxPoint x="419.68" y="246"/>
                            <mxPoint x="360" y="246"/>
                            <mxPoint x="210" y="230"/>
                        </Array>
                        <mxPoint as="offset"/>
                    </mxGeometry>
                </mxCell>
                <mxCell id="25" value="Students" style="swimlane;fontStyle=1;align=center;verticalAlign=top;childLayout=stackLayout;horizontal=1;startSize=40;horizontalStack=0;resizeParent=1;resizeParentMax=0;resizeLast=0;collapsible=1;marginBottom=0;" vertex="1" parent="1">
                    <mxGeometry x="480" y="640" width="160" height="482" as="geometry"/>
                </mxCell>
                <mxCell id="26" value="+ ID user: INT&#10;+ userUsername: VARCHAR&#10;+ userEmail: VARCHAR&#10;+ userPassword: VARCHAR&#10;+ userGender:VARCHAR&#10;+ userClass:VARCHAR&#10;+ userParents:VARCHAR&#10;+ userAdresse:VARCHAR&#10;+ userBirth: INT&#10;+userJob: VARCHAR&#10;+userPhone VARCHAR&#10;+userRole: VARCHAR&#10;&#10;&#10;&#10;" style="text;strokeColor=none;fillColor=none;align=left;verticalAlign=top;spacingLeft=4;spacingRight=4;overflow=hidden;rotatable=0;points=[[0,0.5],[1,0.5]];portConstraint=eastwest;" vertex="1" parent="25">
                    <mxGeometry y="40" width="160" height="244" as="geometry"/>
                </mxCell>
                <mxCell id="27" value="" style="line;strokeWidth=1;fillColor=none;align=left;verticalAlign=middle;spacingTop=-1;spacingLeft=3;spacingRight=3;rotatable=0;labelPosition=right;points=[];portConstraint=eastwest;" vertex="1" parent="25">
                    <mxGeometry y="284" width="160" height="8" as="geometry"/>
                </mxCell>
                <mxCell id="28" value="+ addUsers();&#10;+ fetchUsers();&#10;+ updateUsers();&#10;+ removeUsers();&#10;+ fetchStats();&#10;&#10;+ operateStats();&#10;&#10;+ searchData();&#10;&#10;+ logout();&#10;" style="text;strokeColor=none;fillColor=none;align=left;verticalAlign=top;spacingLeft=4;spacingRight=4;overflow=hidden;rotatable=0;points=[[0,0.5],[1,0.5]];portConstraint=eastwest;" vertex="1" parent="25">
                    <mxGeometry y="292" width="160" height="190" as="geometry"/>
                </mxCell>
                <mxCell id="29" value="" style="endArrow=none;html=1;entryX=0.343;entryY=0.009;entryDx=0;entryDy=0;entryPerimeter=0;" edge="1" parent="1" target="25">
                    <mxGeometry width="50" height="50" relative="1" as="geometry">
                        <mxPoint x="400" y="710" as="sourcePoint"/>
                        <mxPoint x="450" y="660" as="targetPoint"/>
                        <Array as="points">
                            <mxPoint x="520" y="550"/>
                        </Array>
                    </mxGeometry>
                </mxCell>
                <mxCell id="30" value="Parents" style="swimlane;fontStyle=1;align=center;verticalAlign=top;childLayout=stackLayout;horizontal=1;startSize=40;horizontalStack=0;resizeParent=1;resizeParentMax=0;resizeLast=0;collapsible=1;marginBottom=0;" vertex="1" parent="1">
                    <mxGeometry x="270" y="710" width="160" height="482" as="geometry"/>
                </mxCell>
                <mxCell id="31" value="+ ID user: INT&#10;+ userUsername: VARCHAR&#10;+ userEmail: VARCHAR&#10;+ userPassword: VARCHAR&#10;+ userGender:VARCHAR&#10;+ userClass:VARCHAR&#10;+ userParents:VARCHAR&#10;+ userAdresse:VARCHAR&#10;+ userBirth: INT&#10;+userJob: VARCHAR&#10;+userPhone VARCHAR&#10;+userRole: VARCHAR&#10;&#10;&#10;&#10;" style="text;strokeColor=none;fillColor=none;align=left;verticalAlign=top;spacingLeft=4;spacingRight=4;overflow=hidden;rotatable=0;points=[[0,0.5],[1,0.5]];portConstraint=eastwest;" vertex="1" parent="30">
                    <mxGeometry y="40" width="160" height="244" as="geometry"/>
                </mxCell>
                <mxCell id="32" value="" style="line;strokeWidth=1;fillColor=none;align=left;verticalAlign=middle;spacingTop=-1;spacingLeft=3;spacingRight=3;rotatable=0;labelPosition=right;points=[];portConstraint=eastwest;" vertex="1" parent="30">
                    <mxGeometry y="284" width="160" height="8" as="geometry"/>
                </mxCell>
                <mxCell id="33" value="+ addUsers();&#10;+ fetchUsers();&#10;+ updateUsers();&#10;+ removeUsers();&#10;+ fetchStats();&#10;&#10;+ operateStats();&#10;&#10;+ searchData();&#10;&#10;+ logout();&#10;" style="text;strokeColor=none;fillColor=none;align=left;verticalAlign=top;spacingLeft=4;spacingRight=4;overflow=hidden;rotatable=0;points=[[0,0.5],[1,0.5]];portConstraint=eastwest;" vertex="1" parent="30">
                    <mxGeometry y="292" width="160" height="190" as="geometry"/>
                </mxCell>
                <mxCell id="35" value="" style="endArrow=none;html=1;" edge="1" parent="1">
                    <mxGeometry width="50" height="50" relative="1" as="geometry">
                        <mxPoint x="90" y="720" as="sourcePoint"/>
                        <mxPoint x="450" y="480" as="targetPoint"/>
                    </mxGeometry>
                </mxCell>
                <mxCell id="36" value="professors" style="swimlane;fontStyle=1;align=center;verticalAlign=top;childLayout=stackLayout;horizontal=1;startSize=40;horizontalStack=0;resizeParent=1;resizeParentMax=0;resizeLast=0;collapsible=1;marginBottom=0;" vertex="1" parent="1">
                    <mxGeometry x="20" y="710" width="160" height="482" as="geometry"/>
                </mxCell>
                <mxCell id="37" value="+ ID user: INT&#10;+ userUsername: VARCHAR&#10;+ userEmail: VARCHAR&#10;+ userPassword: VARCHAR&#10;+ userGender:VARCHAR&#10;+ userClass:VARCHAR&#10;+ userParents:VARCHAR&#10;+ userAdresse:VARCHAR&#10;+ userBirth: INT&#10;+userJob: VARCHAR&#10;+userPhone VARCHAR&#10;+userRole: VARCHAR&#10;&#10;&#10;&#10;" style="text;strokeColor=none;fillColor=none;align=left;verticalAlign=top;spacingLeft=4;spacingRight=4;overflow=hidden;rotatable=0;points=[[0,0.5],[1,0.5]];portConstraint=eastwest;" vertex="1" parent="36">
                    <mxGeometry y="40" width="160" height="244" as="geometry"/>
                </mxCell>
                <mxCell id="38" value="" style="line;strokeWidth=1;fillColor=none;align=left;verticalAlign=middle;spacingTop=-1;spacingLeft=3;spacingRight=3;rotatable=0;labelPosition=right;points=[];portConstraint=eastwest;" vertex="1" parent="36">
                    <mxGeometry y="284" width="160" height="8" as="geometry"/>
                </mxCell>
                <mxCell id="39" value="+ addUsers();&#10;+ fetchUsers();&#10;+ updateUsers();&#10;+ removeUsers();&#10;+ fetchStats();&#10;&#10;+ operateStats();&#10;&#10;+ searchData();&#10;&#10;+ logout();&#10;" style="text;strokeColor=none;fillColor=none;align=left;verticalAlign=top;spacingLeft=4;spacingRight=4;overflow=hidden;rotatable=0;points=[[0,0.5],[1,0.5]];portConstraint=eastwest;" vertex="1" parent="36">
                    <mxGeometry y="292" width="160" height="190" as="geometry"/>
                </mxCell>
            </root>
        </mxGraphModel>
    </diagram>
</mxfile>